PathFileType	4	(X/Y/Z)	C:\Users\Basilio\Documents\Thesis Gigler\squatting_fais\c3dfiles\039\SLS_pre_front3\markers_experimental.trc
DataRate	CameraRate	NumFrames	NumMarkers	Units	OrigDataRate	OrigDataStartFrame	OrigNumFrames
200.000000	200.000000	4	63	mm	200.000000	1353	2166
Frame#	Time	FHD			LBHD			RBHD			C7			T10			CLAV			LSHO			LUUPA			LMUPA			LDUPA			LLEP			LMEP			LRAD			LUL			LRFIN			RSHO			RUPA1			RMUPA			RDUPA			RLEP			RMEP			RRAD			RUL			RUFIN			LASI			RASI			USACR			LSACR			RSACR			LTHI1			LTHI2			LTHI3			LTHI4			LLFC			LMFC			LTIB1			LTIB2			LTIB3			LTIB4			LLMAL			LMMAL			LHEE			LMT1			LMT2			LMT5			RTHI			RTHI2			RTHI3			RTHI4			RLFC			RMFC			RTIB1			RTIB2			RTIB3			RTIB4			RLMAL			RMMAL			RHEE			RMT1			RMT2			RMT5			*61			*62			
		X1	Y1	Z1	X2	Y2	Z2	X3	Y3	Z3	X4	Y4	Z4	X5	Y5	Z5	X6	Y6	Z6	X7	Y7	Z7	X8	Y8	Z8	X9	Y9	Z9	X10	Y10	Z10	X11	Y11	Z11	X12	Y12	Z12	X13	Y13	Z13	X14	Y14	Z14	X15	Y15	Z15	X16	Y16	Z16	X17	Y17	Z17	X18	Y18	Z18	X19	Y19	Z19	X20	Y20	Z20	X21	Y21	Z21	X22	Y22	Z22	X23	Y23	Z23	X24	Y24	Z24	X25	Y25	Z25	X26	Y26	Z26	X27	Y27	Z27	X28	Y28	Z28	X29	Y29	Z29	X30	Y30	Z30	X31	Y31	Z31	X32	Y32	Z32	X33	Y33	Z33	X34	Y34	Z34	X35	Y35	Z35	X36	Y36	Z36	X37	Y37	Z37	X38	Y38	Z38	X39	Y39	Z39	X40	Y40	Z40	X41	Y41	Z41	X42	Y42	Z42	X43	Y43	Z43	X44	Y44	Z44	X45	Y45	Z45	X46	Y46	Z46	X47	Y47	Z47	X48	Y48	Z48	X49	Y49	Z49	X50	Y50	Z50	X51	Y51	Z51	X52	Y52	Z52	X53	Y53	Z53	X54	Y54	Z54	X55	Y55	Z55	X56	Y56	Z56	X57	Y57	Z57	X58	Y58	Z58	X59	Y59	Z59	X60	Y60	Z60	X61	Y61	Z61	X62	Y62	Z62	X63	Y63	Z63	

1354	6.765000000000001	-279.1376647949219	1507.153930664063	-676.4974365234376	-437.9811401367189	1467.487548828125	-791.1018676757815	-407.9566040039064	1477.035522460938	-653.3403930664064	-476.4192199707032	1317.886840820313	-710.4057006835939	-556.0765380859376	1026.5888671875	-727.2172851562501	nan	nan	nan	-417.1695556640626	1324.646728515625	-861.337829589844	-254.4475860595704	1309.385498046875	-969.4530029296877	-234.0027770996094	1340.623657226563	-936.0440063476565	-186.5629119873047	1325.736328125	-968.7615356445315	-121.1173934936524	1341.032470703125	-962.3680419921877	-108.4900817871094	1269.374633789063	-935.026306152344	156.744613647461	1394.625	-885.2966308593752	151.3712768554688	1405.93017578125	-960.4995117187502	234.0185241699219	1440.039306640625	-882.2607421875002	-349.0245361328126	1311.594970703125	-548.8594970703126	-186.4425811767578	1260.356811523438	-451.1252441406251	-162.9293518066407	1297.420654296875	-475.8949584960939	-117.5619354248047	1263.54052734375	-454.9743041992189	-55.84388732910158	1284.279052734375	-465.8427124023439	-43.72873306274415	1220.201416015625	-509.4977416992189	218.6292419433594	1369.356079101563	-566.5738525390626	227.9274444580079	1357.56640625	-491.954071044922	301.7630310058594	1412.239624023438	-568.2052001953126	-418.2000732421876	872.936706542969	-865.2532958984377	-414.5940246582032	841.8440551757815	-641.3569335937501	-598.7974853515626	879.643005371094	-742.8259277343751	-602.4179077148439	850.6865844726565	-773.4283447265627	-600.1578979492189	844.2294921875002	-714.8243408203126	-269.7874145507813	699.4837646484376	-941.9753417968752	-184.7688903808594	698.6100463867189	-931.644226074219	-169.0481567382813	739.4867553710939	-913.3966064453127	-148.9438781738282	648.8036499023439	-923.1585693359377	-38.22679519653321	601.3728027343751	-914.5513916015627	-12.63951873779297	596.7935791015626	-797.2126464843752	116.9896926879883	570.2428588867189	-881.5605468750002	120.7065353393555	500.0916137695314	-932.655700683594	146.4985656738282	529.2364501953126	-911.3543090820315	211.2082214355469	483.3291931152345	-873.8535766601565	324.0193176269532	351.3374633789063	-916.203796386719	332.2170715332032	350.2590026855469	-828.6221313476565	332.7677612304688	256.6782531738282	-886.1124267578127	465.6853332519532	445.0908508300782	-842.068054199219	460.0735473632814	447.8589782714845	-882.8328857421877	451.7813415527345	409.7705078125001	-942.9096679687502	-288.0240783691407	620.3330688476564	-599.5097045898439	-221.4823608398438	612.5466308593751	-602.0848388671876	-201.421371459961	638.0479736328126	-608.9875488281251	-183.086181640625	537.8161010742189	-615.0529174804689	-135.1927490234375	441.6820373535157	-655.5976562500001	-116.1699981689453	455.0301513671876	-766.9857177734376	-189.1255340576172	261.1670227050782	-708.5620727539064	-293.6446533203126	241.3860931396485	-690.9464111328126	-257.7468872070313	214.0466003417969	-704.6857910156251	-269.0712890625001	169.8683319091797	-743.7127685546876	-370.9363098144532	120.0003051757813	-721.8720703125001	-345.1824645996094	133.6309509277344	-808.9517822265627	-452.3037414550782	106.0085220336914	-771.3023071289065	-228.9249267578126	51.72774887084962	-782.5676269531252	-232.374252319336	56.94039154052736	-736.2219238281251	-289.0137023925782	44.00092315673829	-684.5836181640626	nan	nan	nan	nan	nan	nan	
1355	6.77	-279.3479614257813	1507.255981445313	-675.7000122070314	-438.1333923339845	1467.221069335938	-790.3575439453127	-408.0332031250001	1476.6328125	-652.5554199218751	-476.3348693847657	1317.755859375	-709.8609008789064	-556.2608032226564	1026.49951171875	-727.2391357421876	nan	nan	nan	-416.9172668457032	1324.688842773438	-860.8088989257815	-254.4197845458985	1309.69140625	-968.952087402344	-233.9694824218751	1341.022583007813	-935.604187011719	-186.5294952392578	1326.102416992188	-968.399597167969	-120.7797775268555	1341.16259765625	-962.221862792969	-108.3809585571289	1270.035034179688	-934.6509399414065	156.9442291259766	1394.8173828125	-885.375915527344	151.3596649169922	1406.356811523438	-960.490417480469	234.1246795654297	1440.517333984375	-882.453308105469	-349.0425415039063	1311.301879882813	-548.2633666992189	-186.4375915527344	1259.833740234375	-450.9610290527345	-162.8767242431641	1297.026245117188	-475.5163574218751	-117.6241607666016	1262.94287109375	-454.7038574218751	-55.89822387695314	1283.868408203125	-465.4693908691407	-43.69795608520509	1219.999633789063	-509.3833923339845	218.6026916503907	1369.2236328125	-565.6312255859376	227.6607971191407	1357.077758789063	-491.3248291015626	301.9384765625001	1411.899658203125	-566.9797973632814	-418.4223632812501	872.748474121094	-865.268005371094	-415.109344482422	841.971618652344	-641.2064819335939	-599.1546020507814	879.7293701171877	-742.9218750000001	-602.7377929687501	850.7220458984377	-773.5690917968752	-600.6869506835939	844.2193603515627	-714.9250488281251	-270.2026367187501	699.3304443359376	-942.1757812500002	-185.132080078125	698.4429931640626	-931.9351806640627	-169.2431030273438	739.3208007812501	-913.7738037109377	-149.3324432373047	648.6577758789064	-923.5452270507815	-38.33710098266602	601.0128784179689	-915.1553955078127	-12.70640754699707	596.7864379882814	-797.9151000976565	116.6482849121094	570.0727539062501	-882.196228027344	120.1169815063477	499.396453857422	-933.4824829101565	146.0654296875	529.0090942382814	-912.0526123046877	210.9463195800782	483.1144104003907	-874.758972167969	323.4754943847657	350.7979431152344	-917.1414184570315	332.0144042968751	350.0892028808594	-829.7845458984377	332.6973266601563	256.3944702148438	-886.912780761719	464.9483947753907	444.734100341797	-844.0541992187502	459.5943908691407	447.8931274414064	-884.491394042969	451.1511535644532	409.7935791015626	-944.3165283203127	-288.5746765136719	620.4174804687501	-598.9494018554689	-221.9958953857422	612.5712280273439	-601.4771728515626	-201.7803344726563	638.2000732421876	-608.5235595703126	-183.4449920654297	537.9606323242189	-614.4094848632814	-135.5493469238282	442.0693969726564	-655.1307983398439	-116.4456024169922	455.0874633789064	-766.1524047851564	-189.2505035400391	261.3297119140626	-707.8833618164064	-293.7594909667969	241.480209350586	-690.5402832031251	-257.8967895507813	214.0695190429688	-704.3849487304689	-269.0770263671876	169.9608306884766	-743.3213500976564	-371.0416259765626	119.9266052246094	-721.7069091796876	-345.0602416992188	133.7241363525391	-808.713073730469	-452.366668701172	106.0773696899414	-771.2651367187502	-229.0245666503907	51.75640106201173	-782.5050048828127	-232.4464874267579	56.89113616943361	-736.0469360351564	-289.0283813476563	43.96443176269532	-684.4262695312501	nan	nan	nan	nan	nan	nan	
1356	6.775	-279.4164733886719	1506.998413085938	-675.0582885742189	-438.1193237304689	1467.017700195313	-789.8120727539065	-408.147430419922	1476.455810546875	-651.6562500000001	-476.3034667968751	1317.62744140625	-709.2470703125001	-556.4718017578126	1026.505126953125	-727.2854614257814	nan	nan	nan	-417.1859130859376	1324.81201171875	-860.4389648437502	-254.2843475341797	1309.97705078125	-968.6473388671877	-233.8789367675782	1341.3916015625	-935.2955322265627	-186.4167938232422	1326.519165039063	-968.0859985351565	-120.7490768432617	1341.560302734375	-961.9695434570315	-108.3018112182617	1270.352783203125	-934.4121093750002	157.155517578125	1395.071899414063	-885.4280395507815	151.3533020019532	1406.979125976563	-960.5986938476565	234.2288665771485	1441.068481445313	-882.6837158203127	-349.0996398925782	1311.039672851563	-547.7260742187501	-186.3771057128907	1259.354614257813	-450.690887451172	-162.7940368652344	1296.79638671875	-475.1274719238282	-117.6521987915039	1262.5263671875	-454.362030029297	-55.89804458618165	1283.540893554688	-465.1588439941407	-43.70280075073243	1219.93701171875	-509.2583312988282	218.7564697265626	1369.089721679688	-564.7407836914064	227.4643707275391	1356.723266601563	-490.3177795410157	301.9758911132813	1411.619262695313	-565.9171142578126	-418.6387939453126	872.6123657226565	-865.2734985351565	-415.5770874023439	842.0678710937502	-641.2252807617189	-599.4493408203126	879.728698730469	-742.9903564453126	-603.0296630859376	850.7107543945315	-773.641784667969	-601.0378417968751	844.270690917969	-714.9664306640626	-270.1920471191407	699.5024414062501	-942.2551269531252	-185.4599151611328	698.3093872070314	-932.243347167969	-169.6338348388672	739.2410888671876	-914.180358886719	-149.6562652587891	648.4588012695314	-923.9212036132815	-38.7419776916504	600.8255615234376	-915.7869262695315	-12.77112865447998	596.7203979492189	-798.6427001953127	116.5392837524414	569.8645019531251	-883.112731933594	119.6959991455078	499.295623779297	-934.0416259765627	145.8910675048828	529.1170043945314	-912.8845214843752	210.6972045898438	483.2250976562501	-875.579284667969	322.8707580566407	350.3512268066407	-918.2757568359377	331.9239196777344	349.9930114746094	-830.7568969726565	332.3950195312501	256.1002197265626	-887.9049072265627	465.0994873046876	444.8339233398439	-845.3931884765627	459.142059326172	447.7049865722657	-886.2622070312502	450.3806457519532	409.6486206054689	-946.085876464844	-289.1746215820313	620.5174560546876	-598.3989868164064	-222.3174743652344	612.7153930664064	-600.8482666015626	-202.1986846923829	638.3710327148439	-608.0449829101564	-183.8095703125	538.1184692382814	-613.8601684570314	-135.9031677246094	442.2196350097657	-654.5259399414064	-116.6125259399414	455.2287597656251	-765.4924926757814	-189.320053100586	261.4538879394532	-707.5775146484376	-293.9253540039063	241.5720520019532	-690.1810913085939	-257.9591369628907	214.0969238281251	-704.0032348632814	-269.1071777343751	170.056381225586	-742.9691772460939	-371.1576538085938	119.9880142211914	-721.4565429687501	-345.0472717285157	133.913558959961	-808.4844360351565	-452.3313293457032	106.0802688598633	-771.1987915039065	-228.6238708496094	51.25695037841798	-782.2148437500002	-232.2816619873047	56.32722473144533	-735.9337768554689	-289.0769958496094	43.83359909057618	-684.3673706054689	nan	nan	nan	nan	nan	nan	
1357	6.78	-279.4908142089844	1507.045654296875	-674.5021362304689	-438.0740356445314	1466.917358398438	-789.3381347656252	-408.3002929687501	1476.4375	-650.9630737304689	-476.312225341797	1317.378295898438	-708.6798706054689	-556.5670776367189	1026.453735351563	-727.3598632812501	nan	nan	nan	-417.1011047363282	1324.936767578125	-859.9106445312502	-254.2805480957032	1310.433349609375	-968.289489746094	-233.7214660644532	1341.35107421875	-935.034118652344	-186.3883972167969	1326.92919921875	-967.8468017578127	-120.6169967651367	1341.905151367188	-961.757751464844	-108.0848007202149	1270.702270507813	-934.394958496094	157.3490295410157	1395.401000976563	-885.5466308593752	151.4318389892578	1407.48681640625	-960.708679199219	234.4001007080079	1441.856689453125	-883.034851074219	-349.1156921386719	1310.638793945313	-547.1522216796876	-186.3580627441407	1258.871459960938	-450.2477111816407	-163.0728454589844	1296.250244140625	-474.8992919921876	-117.6805648803711	1262.116333007813	-454.1902160644532	-55.97103118896486	1283.283081054688	-464.8418579101564	-43.61590194702149	1219.313598632813	-509.2825317382814	219.0838623046876	1368.920532226563	-563.9105834960939	227.3334655761719	1356.44677734375	-489.5040588378907	302.1610412597657	1411.480346679688	-564.8529052734376	-418.9673156738282	872.443054199219	-865.2091064453127	-415.9125366210939	842.1243286132815	-641.1964111328126	-599.7579345703126	879.8487548828127	-743.1787719726564	-603.2911987304689	850.6907348632815	-773.6962890625002	-601.2395019531251	844.2431640625002	-715.0307006835939	-270.5423278808594	699.3711547851564	-942.5100708007815	-185.8164978027344	698.0867309570314	-932.5852661132815	-169.9328918457032	739.0914916992189	-914.5999145507815	-150.0387573242188	648.3199462890626	-924.3350830078127	-39.17149353027344	600.6942138671876	-916.444763183594	-12.82865715026856	596.6212158203126	-799.3437500000002	116.3527603149414	569.6569213867189	-884.1755371093752	119.4442520141602	499.355438232422	-935.0872802734377	145.8916015625	528.7650146484376	-914.000915527344	210.4698181152344	482.6762084960939	-876.7327880859377	322.6251220703126	350.1972045898438	-919.3768310546877	331.8113403320313	349.7643432617188	-831.6990966796877	332.1900634765626	255.8149414062501	-889.0103149414065	464.4646911621095	444.4974975585939	-847.4984130859377	458.602752685547	447.7474365234376	-887.8339843750002	449.5367431640626	409.3753356933595	-947.7825317382815	-289.8358764648438	620.6228027343751	-597.9862060546876	-222.7946777343751	612.8779907226564	-600.5141601562501	-202.7344360351563	638.6225585937501	-607.3790893554689	-184.1919097900391	538.1031494140626	-613.3255615234376	-136.4566345214844	442.0008850097657	-654.0051879882814	-116.7201843261719	455.4298400878907	-764.8477172851564	-189.4365234375	261.5711669921876	-707.1110229492189	-294.0222473144532	241.6294097900391	-689.8421020507814	-258.0808715820313	214.1128540039063	-703.5520629882814	-269.1700134277344	170.1355895996094	-742.6495971679689	-371.1858215332032	119.9668273925782	-721.2672119140626	-344.9705200195313	134.057357788086	-808.2684326171877	-452.3527221679689	106.0695343017578	-771.195007324219	-228.9294433593751	51.73448944091798	-782.333679199219	-232.5580139160157	56.79190826416017	-735.7927856445314	-289.0989990234376	43.76567459106446	-684.2557983398439	nan	nan	nan	nan	nan	nan	
